STARTFONT 2.1
COMMENT
COMMENT Converted from TrueType font "c:\windows\fonts\Arialbd.ttf" by "TTF2BDF.EXE 2.6".
COMMENT
FONT -FreeType-Arial-Bold-R-Normal--12-120-75-75-P-65-ISO8859-1
SIZE 12 75 75
FONTBOUNDINGBOX 14 16 -1 -3
STARTPROPERTIES 20
FOUNDRY "FreeType"
FAMILY_NAME "Arial"
WEIGHT_NAME "Bold"
SLANT "R"
SETWIDTH_NAME "Normal"
ADD_STYLE_NAME ""
PIXEL_SIZE 12
POINT_SIZE 120
RESOLUTION_X 75
RESOLUTION_Y 75
SPACING "P"
AVERAGE_WIDTH 65
CHARSET_REGISTRY "ISO8859"
CHARSET_ENCODING "1"
FONT_ASCENT 11
FONT_DESCENT 2
COPYRIGHT "Typeface © The Monotype Corporation plc. Data © The Monotype Corporation plc/Type Solutions Inc. 1990-1992. All Rights Reserved"
_TTF_FONTFILE "c:\windows\fonts\Arialbd.ttf"
_TTF_PSNAME "Arial-BoldMT"
_XFREE86_GLYPH_RANGES "32_126 160_255"
ENDPROPERTIES
CHARS 191
STARTCHAR 0020
ENCODING 32
SWIDTH 320 0
DWIDTH 4 0
BBX 1 1 0 0
BITMAP
00
ENDCHAR
STARTCHAR 0021
ENCODING 33
SWIDTH 320 0
DWIDTH 4 0
BBX 2 10 1 0
BITMAP
C0
C0
C0
C0
C0
C0
C0
00
C0
C0
ENDCHAR
STARTCHAR 0022
ENCODING 34
SWIDTH 480 0
DWIDTH 6 0
BBX 5 3 1 7
BITMAP
D8
D8
D8
ENDCHAR
STARTCHAR 0023
ENCODING 35
SWIDTH 560 0
DWIDTH 7 0
BBX 6 10 0 0
BITMAP
24
24
24
FC
48
48
FC
90
90
90
ENDCHAR
STARTCHAR 0024
ENCODING 36
SWIDTH 560 0
DWIDTH 7 0
BBX 5 12 1 -1
BITMAP
20
70
A8
A0
E0
F0
78
38
28
A8
70
20
ENDCHAR
STARTCHAR 0025
ENCODING 37
SWIDTH 800 0
DWIDTH 10 0
BBX 8 10 1 0
BITMAP
E4
A4
A4
A8
E8
17
15
15
25
27
ENDCHAR
STARTCHAR 0026
ENCODING 38
SWIDTH 720 0
DWIDTH 9 0
BBX 8 10 1 0
BITMAP
38
6C
6C
3C
30
7A
DA
CE
CE
7B
ENDCHAR
STARTCHAR 0027
ENCODING 39
SWIDTH 240 0
DWIDTH 3 0
BBX 2 3 1 7
BITMAP
C0
C0
C0
ENDCHAR
STARTCHAR 0028
ENCODING 40
SWIDTH 320 0
DWIDTH 4 0
BBX 3 13 1 -3
BITMAP
20
60
40
C0
C0
C0
C0
C0
C0
C0
40
60
20
ENDCHAR
STARTCHAR 0029
ENCODING 41
SWIDTH 320 0
DWIDTH 4 0
BBX 3 13 0 -3
BITMAP
80
C0
40
60
60
60
60
60
60
60
40
C0
80
ENDCHAR
STARTCHAR 002A
ENCODING 42
SWIDTH 400 0
DWIDTH 5 0
BBX 5 4 0 6
BITMAP
20
F8
20
D8
ENDCHAR
STARTCHAR 002B
ENCODING 43
SWIDTH 640 0
DWIDTH 8 0
BBX 6 5 1 1
BITMAP
30
30
FC
30
30
ENDCHAR
STARTCHAR 002C
ENCODING 44
SWIDTH 320 0
DWIDTH 4 0
BBX 2 4 1 -2
BITMAP
C0
C0
40
80
ENDCHAR
STARTCHAR 002D
ENCODING 45
SWIDTH 320 0
DWIDTH 4 0
BBX 3 1 1 2
BITMAP
E0
ENDCHAR
STARTCHAR 002E
ENCODING 46
SWIDTH 320 0
DWIDTH 4 0
BBX 2 2 1 0
BITMAP
C0
C0
ENDCHAR
STARTCHAR 002F
ENCODING 47
SWIDTH 320 0
DWIDTH 4 0
BBX 4 10 0 0
BITMAP
10
10
20
20
20
40
40
40
80
80
ENDCHAR
STARTCHAR 0030
ENCODING 48
SWIDTH 560 0
DWIDTH 7 0
BBX 6 10 0 0
BITMAP
78
CC
CC
CC
CC
CC
CC
CC
CC
78
ENDCHAR
STARTCHAR 0031
ENCODING 49
SWIDTH 560 0
DWIDTH 7 0
BBX 4 10 1 0
BITMAP
30
70
F0
B0
30
30
30
30
30
30
ENDCHAR
STARTCHAR 0032
ENCODING 50
SWIDTH 560 0
DWIDTH 7 0
BBX 6 10 0 0
BITMAP
78
CC
0C
0C
18
38
30
60
C0
FC
ENDCHAR
STARTCHAR 0033
ENCODING 51
SWIDTH 560 0
DWIDTH 7 0
BBX 6 10 0 0
BITMAP
78
CC
0C
0C
30
0C
0C
0C
CC
78
ENDCHAR
STARTCHAR 0034
ENCODING 52
SWIDTH 560 0
DWIDTH 7 0
BBX 6 10 0 0
BITMAP
18
18
38
38
58
58
98
FC
18
18
ENDCHAR
STARTCHAR 0035
ENCODING 53
SWIDTH 560 0
DWIDTH 7 0
BBX 6 10 0 0
BITMAP
7C
60
C0
F8
CC
0C
0C
0C
CC
78
ENDCHAR
STARTCHAR 0036
ENCODING 54
SWIDTH 560 0
DWIDTH 7 0
BBX 6 10 0 0
BITMAP
38
4C
C0
C0
F8
CC
CC
CC
CC
78
ENDCHAR
STARTCHAR 0037
ENCODING 55
SWIDTH 560 0
DWIDTH 7 0
BBX 6 10 0 0
BITMAP
FC
0C
18
18
30
30
70
60
60
60
ENDCHAR
STARTCHAR 0038
ENCODING 56
SWIDTH 560 0
DWIDTH 7 0
BBX 6 10 0 0
BITMAP
78
CC
CC
CC
78
CC
CC
CC
CC
78
ENDCHAR
STARTCHAR 0039
ENCODING 57
SWIDTH 560 0
DWIDTH 7 0
BBX 6 10 0 0
BITMAP
78
CC
CC
CC
CC
7C
0C
0C
C8
70
ENDCHAR
STARTCHAR 003A
ENCODING 58
SWIDTH 320 0
DWIDTH 4 0
BBX 2 7 1 0
BITMAP
C0
C0
00
00
00
C0
C0
ENDCHAR
STARTCHAR 003B
ENCODING 59
SWIDTH 320 0
DWIDTH 4 0
BBX 2 9 1 -2
BITMAP
C0
C0
00
00
00
C0
C0
40
80
ENDCHAR
STARTCHAR 003C
ENCODING 60
SWIDTH 640 0
DWIDTH 8 0
BBX 6 7 0 1
BITMAP
04
1C
F0
C0
70
1C
04
ENDCHAR
STARTCHAR 003D
ENCODING 61
SWIDTH 640 0
DWIDTH 8 0
BBX 7 3 0 3
BITMAP
FE
00
FE
ENDCHAR
STARTCHAR 003E
ENCODING 62
SWIDTH 640 0
DWIDTH 8 0
BBX 6 7 1 1
BITMAP
80
E0
38
0C
38
E0
80
ENDCHAR
STARTCHAR 003F
ENCODING 63
SWIDTH 640 0
DWIDTH 8 0
BBX 7 10 0 0
BITMAP
7C
C6
06
06
0C
18
30
00
30
30
ENDCHAR
STARTCHAR 0040
ENCODING 64
SWIDTH 1040 0
DWIDTH 13 0
BBX 13 13 0 -3
BITMAP
0FC0
3020
6010
4EC8
9FC8
B9C8
B188
B390
BFB0
5DC0
4008
3030
0FC0
ENDCHAR
STARTCHAR 0041
ENCODING 65
SWIDTH 720 0
DWIDTH 9 0
BBX 9 10 0 0
BITMAP
1C00
1C00
3600
3600
3600
6300
6300
7F00
C180
C180
ENDCHAR
STARTCHAR 0042
ENCODING 66
SWIDTH 720 0
DWIDTH 9 0
BBX 7 10 1 0
BITMAP
FC
C6
C6
C6
FC
C6
C6
C6
C6
FC
ENDCHAR
STARTCHAR 0043
ENCODING 67
SWIDTH 720 0
DWIDTH 9 0
BBX 8 10 1 0
BITMAP
3E
63
C0
C0
C0
C0
C0
C0
63
3E
ENDCHAR
STARTCHAR 0044
ENCODING 68
SWIDTH 720 0
DWIDTH 9 0
BBX 7 10 1 0
BITMAP
F8
CC
C6
C6
C6
C6
C6
C6
CC
F8
ENDCHAR
STARTCHAR 0045
ENCODING 69
SWIDTH 640 0
DWIDTH 8 0
BBX 6 10 1 0
BITMAP
FC
C0
C0
C0
FC
C0
C0
C0
C0
FC
ENDCHAR
STARTCHAR 0046
ENCODING 70
SWIDTH 640 0
DWIDTH 8 0
BBX 6 10 1 0
BITMAP
FC
C0
C0
C0
C0
FC
C0
C0
C0
C0
ENDCHAR
STARTCHAR 0047
ENCODING 71
SWIDTH 800 0
DWIDTH 10 0
BBX 8 10 1 0
BITMAP
3E
63
C0
C0
C0
CF
C3
C3
63
3E
ENDCHAR
STARTCHAR 0048
ENCODING 72
SWIDTH 720 0
DWIDTH 9 0
BBX 7 10 1 0
BITMAP
C6
C6
C6
C6
FE
C6
C6
C6
C6
C6
ENDCHAR
STARTCHAR 0049
ENCODING 73
SWIDTH 320 0
DWIDTH 4 0
BBX 2 10 1 0
BITMAP
C0
C0
C0
C0
C0
C0
C0
C0
C0
C0
ENDCHAR
STARTCHAR 004A
ENCODING 74
SWIDTH 560 0
DWIDTH 7 0
BBX 6 10 0 0
BITMAP
0C
0C
0C
0C
0C
0C
0C
CC
CC
78
ENDCHAR
STARTCHAR 004B
ENCODING 75
SWIDTH 720 0
DWIDTH 9 0
BBX 7 10 1 0
BITMAP
C6
CC
D8
D8
F8
EC
CC
CC
C6
C6
ENDCHAR
STARTCHAR 004C
ENCODING 76
SWIDTH 640 0
DWIDTH 8 0
BBX 6 10 1 0
BITMAP
C0
C0
C0
C0
C0
C0
C0
C0
C0
FC
ENDCHAR
STARTCHAR 004D
ENCODING 77
SWIDTH 880 0
DWIDTH 11 0
BBX 9 10 1 0
BITMAP
E380
E380
F780
F780
D780
D580
D580
DD80
DD80
C980
ENDCHAR
STARTCHAR 004E
ENCODING 78
SWIDTH 720 0
DWIDTH 9 0
BBX 7 10 1 0
BITMAP
C6
E6
E6
F6
D6
DE
CE
CE
C6
C6
ENDCHAR
STARTCHAR 004F
ENCODING 79
SWIDTH 800 0
DWIDTH 10 0
BBX 8 10 1 0
BITMAP
3C
66
C3
C3
C3
C3
C3
C3
66
3C
ENDCHAR
STARTCHAR 0050
ENCODING 80
SWIDTH 720 0
DWIDTH 9 0
BBX 7 10 1 0
BITMAP
FC
C6
C6
C6
C6
FC
C0
C0
C0
C0
ENDCHAR
STARTCHAR 0051
ENCODING 81
SWIDTH 800 0
DWIDTH 10 0
BBX 8 11 1 -1
BITMAP
3C
66
C3
C3
C3
C3
C3
CB
66
3E
01
ENDCHAR
STARTCHAR 0052
ENCODING 82
SWIDTH 720 0
DWIDTH 9 0
BBX 8 10 1 0
BITMAP
FC
C6
C6
C6
C6
FC
CC
CE
C6
C7
ENDCHAR
STARTCHAR 0053
ENCODING 83
SWIDTH 720 0
DWIDTH 9 0
BBX 7 10 1 0
BITMAP
7C
C6
C0
E0
78
3C
0E
06
C6
7C
ENDCHAR
STARTCHAR 0054
ENCODING 84
SWIDTH 640 0
DWIDTH 8 0
BBX 8 10 0 0
BITMAP
FF
18
18
18
18
18
18
18
18
18
ENDCHAR
STARTCHAR 0055
ENCODING 85
SWIDTH 720 0
DWIDTH 9 0
BBX 7 10 1 0
BITMAP
C6
C6
C6
C6
C6
C6
C6
C6
C6
7C
ENDCHAR
STARTCHAR 0056
ENCODING 86
SWIDTH 720 0
DWIDTH 9 0
BBX 9 10 0 0
BITMAP
C180
E180
6300
6300
6300
3600
3600
3600
1C00
1C00
ENDCHAR
STARTCHAR 0057
ENCODING 87
SWIDTH 1040 0
DWIDTH 13 0
BBX 13 10 0 0
BITMAP
C718
C718
6730
6DB0
6DB0
6DB0
6DB0
38E0
38E0
38E0
ENDCHAR
STARTCHAR 0058
ENCODING 88
SWIDTH 720 0
DWIDTH 9 0
BBX 7 10 1 0
BITMAP
C6
C6
6C
38
38
38
38
6C
C6
C6
ENDCHAR
STARTCHAR 0059
ENCODING 89
SWIDTH 640 0
DWIDTH 8 0
BBX 8 10 0 0
BITMAP
C3
C3
66
3C
3C
18
18
18
18
18
ENDCHAR
STARTCHAR 005A
ENCODING 90
SWIDTH 560 0
DWIDTH 7 0
BBX 7 10 0 0
BITMAP
FE
06
0C
18
18
30
30
60
E0
FE
ENDCHAR
STARTCHAR 005B
ENCODING 91
SWIDTH 320 0
DWIDTH 4 0
BBX 3 13 1 -3
BITMAP
E0
C0
C0
C0
C0
C0
C0
C0
C0
C0
C0
C0
E0
ENDCHAR
STARTCHAR 005C
ENCODING 92
SWIDTH 320 0
DWIDTH 4 0
BBX 4 10 0 0
BITMAP
80
80
40
40
40
20
20
20
10
10
ENDCHAR
STARTCHAR 005D
ENCODING 93
SWIDTH 320 0
DWIDTH 4 0
BBX 3 13 0 -3
BITMAP
E0
60
60
60
60
60
60
60
60
60
60
60
E0
ENDCHAR
STARTCHAR 005E
ENCODING 94
SWIDTH 640 0
DWIDTH 8 0
BBX 6 5 0 4
BITMAP
30
30
78
48
CC
ENDCHAR
STARTCHAR 005F
ENCODING 95
SWIDTH 560 0
DWIDTH 7 0
BBX 7 1 0 -3
BITMAP
FE
ENDCHAR
STARTCHAR 0060
ENCODING 96
SWIDTH 320 0
DWIDTH 4 0
BBX 3 2 0 8
BITMAP
C0
60
ENDCHAR
STARTCHAR 0061
ENCODING 97
SWIDTH 640 0
DWIDTH 8 0
BBX 6 7 1 0
BITMAP
78
8C
3C
6C
CC
CC
7C
ENDCHAR
STARTCHAR 0062
ENCODING 98
SWIDTH 640 0
DWIDTH 8 0
BBX 6 10 1 0
BITMAP
C0
C0
C0
D8
EC
CC
CC
CC
EC
D8
ENDCHAR
STARTCHAR 0063
ENCODING 99
SWIDTH 560 0
DWIDTH 7 0
BBX 6 7 1 0
BITMAP
78
CC
C0
C0
C0
CC
78
ENDCHAR
STARTCHAR 0064
ENCODING 100
SWIDTH 640 0
DWIDTH 8 0
BBX 6 10 1 0
BITMAP
0C
0C
0C
6C
DC
CC
CC
CC
DC
6C
ENDCHAR
STARTCHAR 0065
ENCODING 101
SWIDTH 640 0
DWIDTH 8 0
BBX 6 7 1 0
BITMAP
78
CC
CC
FC
C0
CC
78
ENDCHAR
STARTCHAR 0066
ENCODING 102
SWIDTH 320 0
DWIDTH 4 0
BBX 5 10 0 0
BITMAP
38
60
60
F0
60
60
60
60
60
60
ENDCHAR
STARTCHAR 0067
ENCODING 103
SWIDTH 640 0
DWIDTH 8 0
BBX 6 10 1 -3
BITMAP
6C
DC
CC
CC
CC
DC
6C
0C
8C
78
ENDCHAR
STARTCHAR 0068
ENCODING 104
SWIDTH 640 0
DWIDTH 8 0
BBX 6 10 1 0
BITMAP
C0
C0
C0
D8
EC
CC
CC
CC
CC
CC
ENDCHAR
STARTCHAR 0069
ENCODING 105
SWIDTH 320 0
DWIDTH 4 0
BBX 2 10 1 0
BITMAP
C0
C0
00
C0
C0
C0
C0
C0
C0
C0
ENDCHAR
STARTCHAR 006A
ENCODING 106
SWIDTH 320 0
DWIDTH 4 0
BBX 4 13 -1 -3
BITMAP
30
30
00
30
30
30
30
30
30
30
30
30
E0
ENDCHAR
STARTCHAR 006B
ENCODING 107
SWIDTH 560 0
DWIDTH 7 0
BBX 6 10 1 0
BITMAP
C0
C0
C0
CC
D8
F0
F0
D8
D8
CC
ENDCHAR
STARTCHAR 006C
ENCODING 108
SWIDTH 320 0
DWIDTH 4 0
BBX 2 10 1 0
BITMAP
C0
C0
C0
C0
C0
C0
C0
C0
C0
C0
ENDCHAR
STARTCHAR 006D
ENCODING 109
SWIDTH 960 0
DWIDTH 12 0
BBX 10 7 1 0
BITMAP
DD80
EEC0
CCC0
CCC0
CCC0
CCC0
CCC0
ENDCHAR
STARTCHAR 006E
ENCODING 110
SWIDTH 640 0
DWIDTH 8 0
BBX 6 7 1 0
BITMAP
D8
EC
CC
CC
CC
CC
CC
ENDCHAR
STARTCHAR 006F
ENCODING 111
SWIDTH 640 0
DWIDTH 8 0
BBX 6 7 1 0
BITMAP
78
CC
CC
CC
CC
CC
78
ENDCHAR
STARTCHAR 0070
ENCODING 112
SWIDTH 640 0
DWIDTH 8 0
BBX 6 10 1 -3
BITMAP
D8
EC
CC
CC
CC
EC
D8
C0
C0
C0
ENDCHAR
STARTCHAR 0071
ENCODING 113
SWIDTH 640 0
DWIDTH 8 0
BBX 6 10 1 -3
BITMAP
6C
DC
CC
CC
CC
DC
6C
0C
0C
0C
ENDCHAR
STARTCHAR 0072
ENCODING 114
SWIDTH 400 0
DWIDTH 5 0
BBX 4 7 1 0
BITMAP
F0
C0
C0
C0
C0
C0
C0
ENDCHAR
STARTCHAR 0073
ENCODING 115
SWIDTH 480 0
DWIDTH 6 0
BBX 6 7 0 0
BITMAP
78
CC
E0
78
1C
CC
78
ENDCHAR
STARTCHAR 0074
ENCODING 116
SWIDTH 320 0
DWIDTH 4 0
BBX 4 9 0 0
BITMAP
20
60
F0
60
60
60
60
60
30
ENDCHAR
STARTCHAR 0075
ENCODING 117
SWIDTH 640 0
DWIDTH 8 0
BBX 6 7 1 0
BITMAP
CC
CC
CC
CC
CC
DC
6C
ENDCHAR
STARTCHAR 0076
ENCODING 118
SWIDTH 560 0
DWIDTH 7 0
BBX 7 7 0 0
BITMAP
C6
C6
6C
6C
6C
38
38
ENDCHAR
STARTCHAR 0077
ENCODING 119
SWIDTH 880 0
DWIDTH 11 0
BBX 11 7 0 0
BITMAP
C460
CE60
6EC0
6AC0
7BC0
3B80
3980
ENDCHAR
STARTCHAR 0078
ENCODING 120
SWIDTH 640 0
DWIDTH 8 0
BBX 6 7 1 0
BITMAP
CC
CC
78
30
78
CC
CC
ENDCHAR
STARTCHAR 0079
ENCODING 121
SWIDTH 560 0
DWIDTH 7 0
BBX 7 10 0 -3
BITMAP
C6
C6
6C
6C
6C
38
38
38
30
F0
ENDCHAR
STARTCHAR 007A
ENCODING 122
SWIDTH 560 0
DWIDTH 7 0
BBX 5 7 1 0
BITMAP
F8
18
30
60
60
C0
F8
ENDCHAR
STARTCHAR 007B
ENCODING 123
SWIDTH 400 0
DWIDTH 5 0
BBX 5 13 0 -3
BITMAP
38
60
60
60
60
60
C0
60
60
60
60
60
38
ENDCHAR
STARTCHAR 007C
ENCODING 124
SWIDTH 240 0
DWIDTH 3 0
BBX 1 12 1 -2
BITMAP
80
80
80
80
80
80
80
80
80
80
80
80
ENDCHAR
STARTCHAR 007D
ENCODING 125
SWIDTH 400 0
DWIDTH 5 0
BBX 5 13 0 -3
BITMAP
E0
30
30
30
30
30
18
30
30
30
30
30
E0
ENDCHAR
STARTCHAR 007E
ENCODING 126
SWIDTH 640 0
DWIDTH 8 0
BBX 7 2 0 3
BITMAP
72
9C
ENDCHAR
STARTCHAR 00A0
ENCODING 160
SWIDTH 320 0
DWIDTH 4 0
BBX 1 1 0 0
BITMAP
00
ENDCHAR
STARTCHAR 00A1
ENCODING 161
SWIDTH 320 0
DWIDTH 4 0
BBX 2 10 1 -3
BITMAP
C0
C0
00
C0
C0
C0
C0
C0
C0
C0
ENDCHAR
STARTCHAR 00A2
ENCODING 162
SWIDTH 560 0
DWIDTH 7 0
BBX 6 13 0 -3
BITMAP
08
08
10
78
DC
D0
D0
D0
E4
78
20
40
40
ENDCHAR
STARTCHAR 00A3
ENCODING 163
SWIDTH 560 0
DWIDTH 7 0
BBX 7 10 0 0
BITMAP
3C
66
60
60
60
FC
30
70
FA
4C
ENDCHAR
STARTCHAR 00A4
ENCODING 164
SWIDTH 560 0
DWIDTH 7 0
BBX 8 8 -1 0
BITMAP
42
FF
66
42
42
66
FF
42
ENDCHAR
STARTCHAR 00A5
ENCODING 165
SWIDTH 560 0
DWIDTH 7 0
BBX 6 10 0 0
BITMAP
CC
CC
78
78
FC
30
FC
30
30
30
ENDCHAR
STARTCHAR 00A6
ENCODING 166
SWIDTH 240 0
DWIDTH 3 0
BBX 1 12 1 -2
BITMAP
80
80
80
80
80
00
00
80
80
80
80
80
ENDCHAR
STARTCHAR 00A7
ENCODING 167
SWIDTH 560 0
DWIDTH 7 0
BBX 6 13 0 -3
BITMAP
38
6C
60
70
F8
DC
CC
EC
78
38
18
D8
70
ENDCHAR
STARTCHAR 00A8
ENCODING 168
SWIDTH 320 0
DWIDTH 4 0
BBX 4 1 0 9
BITMAP
90
ENDCHAR
STARTCHAR 00A9
ENCODING 169
SWIDTH 800 0
DWIDTH 10 0
BBX 10 10 0 0
BITMAP
1E00
6180
4C80
9240
9040
9040
9240
4C80
6180
1E00
ENDCHAR
STARTCHAR 00AA
ENCODING 170
SWIDTH 400 0
DWIDTH 5 0
BBX 4 5 0 5
BITMAP
70
90
70
90
F0
ENDCHAR
STARTCHAR 00AB
ENCODING 171
SWIDTH 560 0
DWIDTH 7 0
BBX 6 6 0 0
BITMAP
24
6C
D8
D8
6C
24
ENDCHAR
STARTCHAR 00AC
ENCODING 172
SWIDTH 640 0
DWIDTH 8 0
BBX 7 4 0 3
BITMAP
FE
06
06
06
ENDCHAR
STARTCHAR 00AD
ENCODING 173
SWIDTH 320 0
DWIDTH 4 0
BBX 3 1 1 2
BITMAP
E0
ENDCHAR
STARTCHAR 00AE
ENCODING 174
SWIDTH 800 0
DWIDTH 10 0
BBX 10 10 0 0
BITMAP
1E00
6180
5C80
9240
9240
9C40
9440
5280
6180
1E00
ENDCHAR
STARTCHAR 00AF
ENCODING 175
SWIDTH 560 0
DWIDTH 7 0
BBX 7 1 0 10
BITMAP
FE
ENDCHAR
STARTCHAR 00B0
ENCODING 176
SWIDTH 400 0
DWIDTH 5 0
BBX 4 4 0 6
BITMAP
60
90
90
60
ENDCHAR
STARTCHAR 00B1
ENCODING 177
SWIDTH 560 0
DWIDTH 7 0
BBX 6 7 0 0
BITMAP
30
30
FC
30
30
00
FC
ENDCHAR
STARTCHAR 00B2
ENCODING 178
SWIDTH 320 0
DWIDTH 4 0
BBX 4 5 0 5
BITMAP
70
90
20
40
F0
ENDCHAR
STARTCHAR 00B3
ENCODING 179
SWIDTH 320 0
DWIDTH 4 0
BBX 4 5 0 5
BITMAP
60
90
20
90
70
ENDCHAR
STARTCHAR 00B4
ENCODING 180
SWIDTH 320 0
DWIDTH 4 0
BBX 3 2 1 8
BITMAP
60
C0
ENDCHAR
STARTCHAR 00B5
ENCODING 181
SWIDTH 560 0
DWIDTH 7 0
BBX 6 10 0 -3
BITMAP
CC
CC
CC
CC
CC
CC
FC
C0
C0
C0
ENDCHAR
STARTCHAR 00B6
ENCODING 182
SWIDTH 560 0
DWIDTH 7 0
BBX 7 12 0 -2
BITMAP
7E
F4
F4
F4
74
14
14
14
14
14
14
14
ENDCHAR
STARTCHAR 00B7
ENCODING 183
SWIDTH 320 0
DWIDTH 4 0
BBX 2 2 1 4
BITMAP
C0
C0
ENDCHAR
STARTCHAR 00B8
ENCODING 184
SWIDTH 320 0
DWIDTH 4 0
BBX 3 3 0 -3
BITMAP
60
20
C0
ENDCHAR
STARTCHAR 00B9
ENCODING 185
SWIDTH 320 0
DWIDTH 4 0
BBX 2 5 1 5
BITMAP
40
C0
40
40
40
ENDCHAR
STARTCHAR 00BA
ENCODING 186
SWIDTH 400 0
DWIDTH 5 0
BBX 4 5 1 5
BITMAP
60
90
90
90
60
ENDCHAR
STARTCHAR 00BB
ENCODING 187
SWIDTH 560 0
DWIDTH 7 0
BBX 6 6 1 0
BITMAP
90
D8
6C
6C
D8
90
ENDCHAR
STARTCHAR 00BC
ENCODING 188
SWIDTH 880 0
DWIDTH 11 0
BBX 10 10 0 0
BITMAP
4100
C200
4400
4400
4800
0880
1180
2280
23C0
4080
ENDCHAR
STARTCHAR 00BD
ENCODING 189
SWIDTH 880 0
DWIDTH 11 0
BBX 10 10 0 0
BITMAP
4100
C200
4200
4400
4800
09C0
1240
1080
2100
43C0
ENDCHAR
STARTCHAR 00BE
ENCODING 190
SWIDTH 880 0
DWIDTH 11 0
BBX 11 10 0 0
BITMAP
6080
9100
2100
9200
7200
0440
08C0
0940
11E0
1040
ENDCHAR
STARTCHAR 00BF
ENCODING 191
SWIDTH 640 0
DWIDTH 8 0
BBX 7 10 0 -3
BITMAP
18
18
00
18
30
60
C0
C0
C6
7C
ENDCHAR
STARTCHAR 00C0
ENCODING 192
SWIDTH 720 0
DWIDTH 9 0
BBX 9 13 0 0
BITMAP
1800
0C00
0000
1C00
1C00
3600
3600
3600
6300
6300
7F00
C180
C180
ENDCHAR
STARTCHAR 00C1
ENCODING 193
SWIDTH 720 0
DWIDTH 9 0
BBX 9 13 0 0
BITMAP
0600
0C00
0000
1C00
1C00
3600
3600
3600
6300
6300
7F00
C180
C180
ENDCHAR
STARTCHAR 00C2
ENCODING 194
SWIDTH 720 0
DWIDTH 9 0
BBX 9 13 0 0
BITMAP
0800
1400
0000
1C00
1C00
3600
3600
3600
6300
6300
7F00
C180
C180
ENDCHAR
STARTCHAR 00C3
ENCODING 195
SWIDTH 720 0
DWIDTH 9 0
BBX 9 13 0 0
BITMAP
1A00
1600
0000
1C00
1C00
3600
3600
3600
6300
6300
7F00
C180
C180
ENDCHAR
STARTCHAR 00C4
ENCODING 196
SWIDTH 720 0
DWIDTH 9 0
BBX 9 12 0 0
BITMAP
1200
0000
1C00
1C00
3600
3600
3600
6300
6300
7F00
C180
C180
ENDCHAR
STARTCHAR 00C5
ENCODING 197
SWIDTH 720 0
DWIDTH 9 0
BBX 9 13 0 0
BITMAP
0C00
1200
1200
1C00
1C00
3600
3600
3600
6300
6300
7F00
C180
C180
ENDCHAR
STARTCHAR 00C6
ENCODING 198
SWIDTH 1040 0
DWIDTH 13 0
BBX 12 10 0 0
BITMAP
0FF0
1B00
1B00
1B00
33F0
3300
6300
7F00
6300
C3F0
ENDCHAR
STARTCHAR 00C7
ENCODING 199
SWIDTH 720 0
DWIDTH 9 0
BBX 8 13 1 -3
BITMAP
3E
63
C0
C0
C0
C0
C0
C0
63
3E
18
08
30
ENDCHAR
STARTCHAR 00C8
ENCODING 200
SWIDTH 640 0
DWIDTH 8 0
BBX 6 13 1 0
BITMAP
60
30
00
FC
C0
C0
C0
FC
C0
C0
C0
C0
FC
ENDCHAR
STARTCHAR 00C9
ENCODING 201
SWIDTH 640 0
DWIDTH 8 0
BBX 6 13 1 0
BITMAP
0C
18
00
FC
C0
C0
C0
FC
C0
C0
C0
C0
FC
ENDCHAR
STARTCHAR 00CA
ENCODING 202
SWIDTH 640 0
DWIDTH 8 0
BBX 6 13 1 0
BITMAP
10
28
00
FC
C0
C0
C0
FC
C0
C0
C0
C0
FC
ENDCHAR
STARTCHAR 00CB
ENCODING 203
SWIDTH 640 0
DWIDTH 8 0
BBX 6 12 1 0
BITMAP
48
00
FC
C0
C0
C0
FC
C0
C0
C0
C0
FC
ENDCHAR
STARTCHAR 00CC
ENCODING 204
SWIDTH 320 0
DWIDTH 4 0
BBX 3 13 0 0
BITMAP
C0
60
00
60
60
60
60
60
60
60
60
60
60
ENDCHAR
STARTCHAR 00CD
ENCODING 205
SWIDTH 320 0
DWIDTH 4 0
BBX 3 13 1 0
BITMAP
60
C0
00
C0
C0
C0
C0
C0
C0
C0
C0
C0
C0
ENDCHAR
STARTCHAR 00CE
ENCODING 206
SWIDTH 320 0
DWIDTH 4 0
BBX 3 13 1 0
BITMAP
40
A0
00
C0
C0
C0
C0
C0
C0
C0
C0
C0
C0
ENDCHAR
STARTCHAR 00CF
ENCODING 207
SWIDTH 320 0
DWIDTH 4 0
BBX 4 12 0 0
BITMAP
90
00
60
60
60
60
60
60
60
60
60
60
ENDCHAR
STARTCHAR 00D0
ENCODING 208
SWIDTH 720 0
DWIDTH 9 0
BBX 8 10 0 0
BITMAP
7C
66
63
63
FB
63
63
63
66
7C
ENDCHAR
STARTCHAR 00D1
ENCODING 209
SWIDTH 720 0
DWIDTH 9 0
BBX 7 13 1 0
BITMAP
34
2C
00
C6
E6
E6
F6
D6
DE
CE
CE
C6
C6
ENDCHAR
STARTCHAR 00D2
ENCODING 210
SWIDTH 800 0
DWIDTH 10 0
BBX 8 13 1 0
BITMAP
30
18
00
3C
66
C3
C3
C3
C3
C3
C3
66
3C
ENDCHAR
STARTCHAR 00D3
ENCODING 211
SWIDTH 800 0
DWIDTH 10 0
BBX 8 13 1 0
BITMAP
0C
18
00
3C
66
C3
C3
C3
C3
C3
C3
66
3C
ENDCHAR
STARTCHAR 00D4
ENCODING 212
SWIDTH 800 0
DWIDTH 10 0
BBX 8 13 1 0
BITMAP
08
14
00
3C
66
C3
C3
C3
C3
C3
C3
66
3C
ENDCHAR
STARTCHAR 00D5
ENCODING 213
SWIDTH 800 0
DWIDTH 10 0
BBX 8 13 1 0
BITMAP
34
2C
00
3C
66
C3
C3
C3
C3
C3
C3
66
3C
ENDCHAR
STARTCHAR 00D6
ENCODING 214
SWIDTH 800 0
DWIDTH 10 0
BBX 8 12 1 0
BITMAP
24
00
3C
66
C3
C3
C3
C3
C3
C3
66
3C
ENDCHAR
STARTCHAR 00D7
ENCODING 215
SWIDTH 640 0
DWIDTH 8 0
BBX 5 6 1 1
BITMAP
88
D8
70
70
D8
88
ENDCHAR
STARTCHAR 00D8
ENCODING 216
SWIDTH 800 0
DWIDTH 10 0
BBX 10 12 0 -1
BITMAP
0080
1EC0
3380
6380
6780
6D80
6D80
7980
7180
7300
DE00
4000
ENDCHAR
STARTCHAR 00D9
ENCODING 217
SWIDTH 720 0
DWIDTH 9 0
BBX 7 13 1 0
BITMAP
30
18
00
C6
C6
C6
C6
C6
C6
C6
C6
C6
7C
ENDCHAR
STARTCHAR 00DA
ENCODING 218
SWIDTH 720 0
DWIDTH 9 0
BBX 7 13 1 0
BITMAP
18
30
00
C6
C6
C6
C6
C6
C6
C6
C6
C6
7C
ENDCHAR
STARTCHAR 00DB
ENCODING 219
SWIDTH 720 0
DWIDTH 9 0
BBX 7 13 1 0
BITMAP
10
28
00
C6
C6
C6
C6
C6
C6
C6
C6
C6
7C
ENDCHAR
STARTCHAR 00DC
ENCODING 220
SWIDTH 720 0
DWIDTH 9 0
BBX 7 12 1 0
BITMAP
24
00
C6
C6
C6
C6
C6
C6
C6
C6
C6
7C
ENDCHAR
STARTCHAR 00DD
ENCODING 221
SWIDTH 640 0
DWIDTH 8 0
BBX 8 13 0 0
BITMAP
0C
18
00
C3
C3
66
3C
3C
18
18
18
18
18
ENDCHAR
STARTCHAR 00DE
ENCODING 222
SWIDTH 720 0
DWIDTH 9 0
BBX 7 10 1 0
BITMAP
C0
C0
FC
C6
C6
C6
C6
FC
C0
C0
ENDCHAR
STARTCHAR 00DF
ENCODING 223
SWIDTH 640 0
DWIDTH 8 0
BBX 6 10 1 0
BITMAP
70
D8
D8
D0
F0
F8
DC
CC
CC
D8
ENDCHAR
STARTCHAR 00E0
ENCODING 224
SWIDTH 640 0
DWIDTH 8 0
BBX 6 10 1 0
BITMAP
60
30
00
78
8C
3C
6C
CC
CC
7C
ENDCHAR
STARTCHAR 00E1
ENCODING 225
SWIDTH 640 0
DWIDTH 8 0
BBX 6 10 1 0
BITMAP
18
30
00
78
8C
3C
6C
CC
CC
7C
ENDCHAR
STARTCHAR 00E2
ENCODING 226
SWIDTH 640 0
DWIDTH 8 0
BBX 6 10 1 0
BITMAP
10
28
00
78
8C
3C
6C
CC
CC
7C
ENDCHAR
STARTCHAR 00E3
ENCODING 227
SWIDTH 640 0
DWIDTH 8 0
BBX 6 10 1 0
BITMAP
68
58
00
78
8C
3C
6C
CC
CC
7C
ENDCHAR
STARTCHAR 00E4
ENCODING 228
SWIDTH 640 0
DWIDTH 8 0
BBX 6 9 1 0
BITMAP
48
00
78
8C
3C
6C
CC
CC
7C
ENDCHAR
STARTCHAR 00E5
ENCODING 229
SWIDTH 640 0
DWIDTH 8 0
BBX 6 12 1 0
BITMAP
30
48
48
30
00
78
8C
3C
6C
CC
CC
7C
ENDCHAR
STARTCHAR 00E6
ENCODING 230
SWIDTH 960 0
DWIDTH 12 0
BBX 10 7 1 0
BITMAP
7B80
8CC0
3CC0
6FC0
CC00
CCC0
7780
ENDCHAR
STARTCHAR 00E7
ENCODING 231
SWIDTH 560 0
DWIDTH 7 0
BBX 6 10 1 -3
BITMAP
78
CC
C0
C0
C0
CC
78
30
10
60
ENDCHAR
STARTCHAR 00E8
ENCODING 232
SWIDTH 640 0
DWIDTH 8 0
BBX 6 10 1 0
BITMAP
60
30
00
78
CC
CC
FC
C0
CC
78
ENDCHAR
STARTCHAR 00E9
ENCODING 233
SWIDTH 640 0
DWIDTH 8 0
BBX 6 10 1 0
BITMAP
18
30
00
78
CC
CC
FC
C0
CC
78
ENDCHAR
STARTCHAR 00EA
ENCODING 234
SWIDTH 640 0
DWIDTH 8 0
BBX 6 10 1 0
BITMAP
10
28
00
78
CC
CC
FC
C0
CC
78
ENDCHAR
STARTCHAR 00EB
ENCODING 235
SWIDTH 640 0
DWIDTH 8 0
BBX 6 9 1 0
BITMAP
48
00
78
CC
CC
FC
C0
CC
78
ENDCHAR
STARTCHAR 00EC
ENCODING 236
SWIDTH 320 0
DWIDTH 4 0
BBX 3 10 0 0
BITMAP
C0
60
00
60
60
60
60
60
60
60
ENDCHAR
STARTCHAR 00ED
ENCODING 237
SWIDTH 320 0
DWIDTH 4 0
BBX 3 10 1 0
BITMAP
60
C0
00
C0
C0
C0
C0
C0
C0
C0
ENDCHAR
STARTCHAR 00EE
ENCODING 238
SWIDTH 320 0
DWIDTH 4 0
BBX 3 10 1 0
BITMAP
40
A0
00
C0
C0
C0
C0
C0
C0
C0
ENDCHAR
STARTCHAR 00EF
ENCODING 239
SWIDTH 320 0
DWIDTH 4 0
BBX 4 9 0 0
BITMAP
90
00
60
60
60
60
60
60
60
ENDCHAR
STARTCHAR 00F0
ENCODING 240
SWIDTH 640 0
DWIDTH 8 0
BBX 6 10 1 0
BITMAP
28
10
28
7C
CC
CC
CC
CC
CC
78
ENDCHAR
STARTCHAR 00F1
ENCODING 241
SWIDTH 640 0
DWIDTH 8 0
BBX 6 10 1 0
BITMAP
68
58
00
D8
EC
CC
CC
CC
CC
CC
ENDCHAR
STARTCHAR 00F2
ENCODING 242
SWIDTH 640 0
DWIDTH 8 0
BBX 6 10 1 0
BITMAP
30
18
00
78
CC
CC
CC
CC
CC
78
ENDCHAR
STARTCHAR 00F3
ENCODING 243
SWIDTH 640 0
DWIDTH 8 0
BBX 6 10 1 0
BITMAP
18
30
00
78
CC
CC
CC
CC
CC
78
ENDCHAR
STARTCHAR 00F4
ENCODING 244
SWIDTH 640 0
DWIDTH 8 0
BBX 6 10 1 0
BITMAP
10
28
00
78
CC
CC
CC
CC
CC
78
ENDCHAR
STARTCHAR 00F5
ENCODING 245
SWIDTH 640 0
DWIDTH 8 0
BBX 6 10 1 0
BITMAP
68
58
00
78
CC
CC
CC
CC
CC
78
ENDCHAR
STARTCHAR 00F6
ENCODING 246
SWIDTH 640 0
DWIDTH 8 0
BBX 6 9 1 0
BITMAP
48
00
78
CC
CC
CC
CC
CC
78
ENDCHAR
STARTCHAR 00F7
ENCODING 247
SWIDTH 560 0
DWIDTH 7 0
BBX 6 7 0 1
BITMAP
30
30
00
FC
00
30
30
ENDCHAR
STARTCHAR 00F8
ENCODING 248
SWIDTH 640 0
DWIDTH 8 0
BBX 6 9 1 -1
BITMAP
08
7C
D8
DC
FC
EC
6C
F8
40
ENDCHAR
STARTCHAR 00F9
ENCODING 249
SWIDTH 640 0
DWIDTH 8 0
BBX 6 10 1 0
BITMAP
60
30
00
CC
CC
CC
CC
CC
DC
6C
ENDCHAR
STARTCHAR 00FA
ENCODING 250
SWIDTH 640 0
DWIDTH 8 0
BBX 6 10 1 0
BITMAP
18
30
00
CC
CC
CC
CC
CC
DC
6C
ENDCHAR
STARTCHAR 00FB
ENCODING 251
SWIDTH 640 0
DWIDTH 8 0
BBX 6 10 1 0
BITMAP
10
28
00
CC
CC
CC
CC
CC
DC
6C
ENDCHAR
STARTCHAR 00FC
ENCODING 252
SWIDTH 640 0
DWIDTH 8 0
BBX 6 9 1 0
BITMAP
48
00
CC
CC
CC
CC
CC
DC
6C
ENDCHAR
STARTCHAR 00FD
ENCODING 253
SWIDTH 560 0
DWIDTH 7 0
BBX 7 13 0 -3
BITMAP
0C
18
00
C6
C6
6C
6C
6C
38
38
38
30
F0
ENDCHAR
STARTCHAR 00FE
ENCODING 254
SWIDTH 640 0
DWIDTH 8 0
BBX 6 13 1 -3
BITMAP
C0
C0
C0
F8
CC
CC
CC
CC
CC
F8
C0
C0
C0
ENDCHAR
STARTCHAR 00FF
ENCODING 255
SWIDTH 560 0
DWIDTH 7 0
BBX 7 12 0 -3
BITMAP
24
00
C6
C6
6C
6C
6C
38
38
38
30
F0
ENDCHAR
ENDFONT
